<?xml version="1.0" encoding="UTF-8"?>
<svg id="Calque_2" data-name="Calque 2" xmlns="http://www.w3.org/2000/svg" viewBox="0 0 92.53 102.39">
  <g id="Calque_1-2" data-name="Calque 1">
    <g>
      <path d="M55.34,4.25c1.97,9-12.3,12.44-11.93,19.89.16,3.16,5.96,4.36,8.33,5.65,7.45,4.05,13.8,13.37,5.62,20.12-4.05,3.34-19.52,10.14-10.77,16.54,4.61,3.37,9.22,2.05,13.62,8.07,5.57,7.62,1.04,12.88-1.78,20.36l3.62.27c.94,1.58-5.91,7.25-6.45,7.25-.49,0-7.37-5.32-6.49-6.94.83-1.22,3.63-.4,4.22-1.14.44-.55,4.16-9.99,4.36-11.02.55-2.83-.16-3.83-1.84-5.95-4.16-5.24-14.95-4.94-16.4-12.01-2.42-11.82,8.03-13.49,14.59-19.26,2.7-2.38,2.62-3.86.89-7.07-3.37-6.26-15.56-6.04-16.14-13.29-.3-3.75.57-7.1,2.91-10.05,3.08-3.9,9.75-5.7,8.99-11.41h4.65Z"/>
      <path d="M14.53,5.29l-5.78,8.94c-5.24,12.03,3.58,10.72,8.28,17.74,8.72,13.05-8.38,16.23-11.52,25.49-2.22,6.56,4.13,8.18,8,11.6,4.78,4.24,5.51,8.53,4.13,14.72h3.61s-.48,2.36-.48,2.36c-1.56.61-5.38,5.41-6.49,5.41s-5.73-5.82-5.95-6.99c-.32-1.7,3.41-.25,4.09-.83.19-.16,1.01-4.38,1-4.87-.13-6.16-8.48-8.29-11.51-12.67-4.34-6.28-.6-13.75,4.08-18.58,3.93-4.06,11.33-6,6.7-12.85-2.22-3.28-6.62-4.6-8.6-7.93-3.38-5.71-.54-15.52,3.96-20.01,1.65-1.65,4.24-.81,6.48-1.52Z"/>
      <path d="M89.88.18c.29.19,1.89,4.72,1.99,5.5.28,2.28-.35,5.04-1.49,7.02-1.68,2.93-8.19,7.59-8.14,10.41.03,1.97,4.26,5.03,5.62,6.71,4.87,6.01,6.01,12.06,2.69,19.2-1.65,3.55-6.46,7.14-6.66,10.82-.11,2,4.82,7.03,5.79,9.99.56,1.72.6,6.89.85,7.16.19.21,1.76.06,1.99.85.34,1.13-3.77,5-4.44,6.41-1.28.3-5.44-5.01-6.92-5.91-.43-1.94,3.92-1.07,4.13-1.28.15-.15.05-3.67-.05-4.35-.68-4.61-5.88-6.8-6.18-11.9-.57-9.76,12.1-13.28,7.19-24.22-2.69-6-10.84-8.12-8.31-16.19,1.54-4.91,7.71-7.63,9.13-11.53.71-1.95-.21-3.17.11-5.01.22-1.31,1.17-4.68,2.7-3.69Z"/>
    </g>
  </g>
</svg>